<svg xmlns="http://www.w3.org/2000/svg" version="1.1" xmlns:xlink="http://www.w3.org/1999/xlink" xmlns:svgjs="http://svgjs.dev/svgjs" width="1440" height="560" preserveAspectRatio="none" viewBox="0 0 1440 560">
    <g mask="url(&quot;#SvgjsMask1008&quot;)" fill="none">
        <rect width="1440" height="560" x="0" y="0" fill="rgba(0, 0, 0, 1)"></rect>
        <path d="M-56.09 557.76L-56.09 557.76" stroke="rgba(82, 84, 89, 1)" stroke-width="1.5"></path>
        <path d="M-56.09 557.76L59.36 654.6" stroke="rgba(82, 84, 89, 1)" stroke-width="1.5"></path>
        <path d="M-56.09 557.76L-92.51 704.42" stroke="rgba(82, 84, 89, 1)" stroke-width="1.5"></path>
        <path d="M-56.09 557.76L105.94 494.82" stroke="rgba(82, 84, 89, 1)" stroke-width="1.5"></path>
        <path d="M-56.09 557.76L77.27 394.37" stroke="rgba(82, 84, 89, 1)" stroke-width="1.5"></path>
        <path d="M-56.09 557.76L205.53 691.78" stroke="rgba(82, 84, 89, 1)" stroke-width="1.5"></path>
        <path d="M-92.51 704.42L-92.51 704.42" stroke="rgba(82, 84, 89, 1)" stroke-width="1.5"></path>
        <path d="M-92.51 704.42L59.36 654.6" stroke="rgba(82, 84, 89, 1)" stroke-width="1.5"></path>
        <path d="M77.27 394.37L77.27 394.37" stroke="rgba(82, 84, 89, 1)" stroke-width="1.5"></path>
        <path d="M77.27 394.37L105.94 494.82" stroke="rgba(82, 84, 89, 1)" stroke-width="1.5"></path>
        <path d="M77.27 394.37L209.9 411.51" stroke="rgba(82, 84, 89, 1)" stroke-width="1.5"></path>
        <path d="M105.94 494.82L105.94 494.82" stroke="rgba(82, 84, 89, 1)" stroke-width="1.5"></path>
        <path d="M105.94 494.82L209.9 411.51" stroke="rgba(82, 84, 89, 1)" stroke-width="1.5"></path>
        <path d="M105.94 494.82L59.36 654.6" stroke="rgba(82, 84, 89, 1)" stroke-width="1.5"></path>
        <path d="M105.94 494.82L205.53 691.78" stroke="rgba(82, 84, 89, 1)" stroke-width="1.5"></path>
        <path d="M105.94 494.82L381.68 546.1" stroke="rgba(82, 84, 89, 1)" stroke-width="1.5"></path>
        <path d="M59.36 654.6L59.36 654.6" stroke="rgba(82, 84, 89, 1)" stroke-width="1.5"></path>
        <path d="M59.36 654.6L205.53 691.78" stroke="rgba(82, 84, 89, 1)" stroke-width="1.5"></path>
        <path d="M59.36 654.6L77.27 394.37" stroke="rgba(82, 84, 89, 1)" stroke-width="1.5"></path>
        <path d="M209.9 411.51L209.9 411.51" stroke="rgba(82, 84, 89, 1)" stroke-width="1.5"></path>
        <path d="M209.9 411.51L404.76 387.14" stroke="rgba(82, 84, 89, 1)" stroke-width="1.5"></path>
        <path d="M209.9 411.51L381.68 546.1" stroke="rgba(82, 84, 89, 1)" stroke-width="1.5"></path>
        <path d="M205.53 691.78L205.53 691.78" stroke="rgba(82, 84, 89, 1)" stroke-width="1.5"></path>
        <path d="M205.53 691.78L367.94 669.09" stroke="rgba(82, 84, 89, 1)" stroke-width="1.5"></path>
        <path d="M205.53 691.78L381.68 546.1" stroke="rgba(82, 84, 89, 1)" stroke-width="1.5"></path>
        <path d="M205.53 691.78L209.9 411.51" stroke="rgba(82, 84, 89, 1)" stroke-width="1.5"></path>
        <path d="M404.76 387.14L404.76 387.14" stroke="rgba(82, 84, 89, 1)" stroke-width="1.5"></path>
        <path d="M404.76 387.14L534.37 351.43" stroke="rgba(82, 84, 89, 1)" stroke-width="1.5"></path>
        <path d="M404.76 387.14L381.68 546.1" stroke="rgba(82, 84, 89, 1)" stroke-width="1.5"></path>
        <path d="M381.68 546.1L381.68 546.1" stroke="rgba(82, 84, 89, 1)" stroke-width="1.5"></path>
        <path d="M381.68 546.1L367.94 669.09" stroke="rgba(82, 84, 89, 1)" stroke-width="1.5"></path>
        <path d="M367.94 669.09L367.94 669.09" stroke="rgba(82, 84, 89, 1)" stroke-width="1.5"></path>
        <path d="M534.37 351.43L534.37 351.43" stroke="rgba(82, 84, 89, 1)" stroke-width="1.5"></path>
        <path d="M534.37 351.43L675.47 382.74" stroke="rgba(82, 84, 89, 1)" stroke-width="1.5"></path>
        <path d="M534.37 351.43L520.86 534.59" stroke="rgba(82, 84, 89, 1)" stroke-width="1.5"></path>
        <path d="M534.37 351.43L648.38 498.31" stroke="rgba(82, 84, 89, 1)" stroke-width="1.5"></path>
        <path d="M520.86 534.59L520.86 534.59" stroke="rgba(82, 84, 89, 1)" stroke-width="1.5"></path>
        <path d="M520.86 534.59L648.38 498.31" stroke="rgba(82, 84, 89, 1)" stroke-width="1.5"></path>
        <path d="M520.86 534.59L544.35 672.16" stroke="rgba(82, 84, 89, 1)" stroke-width="1.5"></path>
        <path d="M520.86 534.59L381.68 546.1" stroke="rgba(82, 84, 89, 1)" stroke-width="1.5"></path>
        <path d="M520.86 534.59L404.76 387.14" stroke="rgba(82, 84, 89, 1)" stroke-width="1.5"></path>
        <path d="M520.86 534.59L367.94 669.09" stroke="rgba(82, 84, 89, 1)" stroke-width="1.5"></path>
        <path d="M544.35 672.16L544.35 672.16" stroke="rgba(82, 84, 89, 1)" stroke-width="1.5"></path>
        <path d="M544.35 672.16L691.49 673.08" stroke="rgba(82, 84, 89, 1)" stroke-width="1.5"></path>
        <path d="M544.35 672.16L367.94 669.09" stroke="rgba(82, 84, 89, 1)" stroke-width="1.5"></path>
        <path d="M544.35 672.16L648.38 498.31" stroke="rgba(82, 84, 89, 1)" stroke-width="1.5"></path>
        <path d="M544.35 672.16L381.68 546.1" stroke="rgba(82, 84, 89, 1)" stroke-width="1.5"></path>
        <path d="M544.35 672.16L856 696.16" stroke="rgba(82, 84, 89, 1)" stroke-width="1.5"></path>
        <path d="M675.47 382.74L675.47 382.74" stroke="rgba(82, 84, 89, 1)" stroke-width="1.5"></path>
        <path d="M675.47 382.74L789.69 375.7" stroke="rgba(82, 84, 89, 1)" stroke-width="1.5"></path>
        <path d="M675.47 382.74L648.38 498.31" stroke="rgba(82, 84, 89, 1)" stroke-width="1.5"></path>
        <path d="M648.38 498.31L648.38 498.31" stroke="rgba(82, 84, 89, 1)" stroke-width="1.5"></path>
        <path d="M691.49 673.08L691.49 673.08" stroke="rgba(82, 84, 89, 1)" stroke-width="1.5"></path>
        <path d="M691.49 673.08L856 696.16" stroke="rgba(82, 84, 89, 1)" stroke-width="1.5"></path>
        <path d="M691.49 673.08L648.38 498.31" stroke="rgba(82, 84, 89, 1)" stroke-width="1.5"></path>
        <path d="M691.49 673.08L819.54 505.62" stroke="rgba(82, 84, 89, 1)" stroke-width="1.5"></path>
        <path d="M691.49 673.08L520.86 534.59" stroke="rgba(82, 84, 89, 1)" stroke-width="1.5"></path>
        <path d="M789.69 375.7L789.69 375.7" stroke="rgba(82, 84, 89, 1)" stroke-width="1.5"></path>
        <path d="M789.69 375.7L819.54 505.62" stroke="rgba(82, 84, 89, 1)" stroke-width="1.5"></path>
        <path d="M789.69 375.7L948.16 386.14" stroke="rgba(82, 84, 89, 1)" stroke-width="1.5"></path>
        <path d="M789.69 375.7L648.38 498.31" stroke="rgba(82, 84, 89, 1)" stroke-width="1.5"></path>
        <path d="M789.69 375.7L942.45 203.83" stroke="rgba(82, 84, 89, 1)" stroke-width="1.5"></path>
        <path d="M819.54 505.62L819.54 505.62" stroke="rgba(82, 84, 89, 1)" stroke-width="1.5"></path>
        <path d="M819.54 505.62L946.27 557.28" stroke="rgba(82, 84, 89, 1)" stroke-width="1.5"></path>
        <path d="M856 696.16L856 696.16" stroke="rgba(82, 84, 89, 1)" stroke-width="1.5"></path>
        <path d="M856 696.16L993.65 639.83" stroke="rgba(82, 84, 89, 1)" stroke-width="1.5"></path>
        <path d="M856 696.16L946.27 557.28" stroke="rgba(82, 84, 89, 1)" stroke-width="1.5"></path>
        <path d="M969.45 80.46L969.45 80.46" stroke="rgba(82, 84, 89, 1)" stroke-width="1.5"></path>
        <path d="M969.45 80.46L942.45 203.83" stroke="rgba(82, 84, 89, 1)" stroke-width="1.5"></path>
        <path d="M969.45 80.46L1148.84 60.88" stroke="rgba(82, 84, 89, 1)" stroke-width="1.5"></path>
        <path d="M969.45 80.46L1159.89 200.47" stroke="rgba(82, 84, 89, 1)" stroke-width="1.5"></path>
        <path d="M969.45 80.46L948.16 386.14" stroke="rgba(82, 84, 89, 1)" stroke-width="1.5"></path>
        <path d="M969.45 80.46L1288.98 88.16" stroke="rgba(82, 84, 89, 1)" stroke-width="1.5"></path>
        <path d="M942.45 203.83L942.45 203.83" stroke="rgba(82, 84, 89, 1)" stroke-width="1.5"></path>
        <path d="M942.45 203.83L948.16 386.14" stroke="rgba(82, 84, 89, 1)" stroke-width="1.5"></path>
        <path d="M942.45 203.83L1159.89 200.47" stroke="rgba(82, 84, 89, 1)" stroke-width="1.5"></path>
        <path d="M942.45 203.83L1148.84 60.88" stroke="rgba(82, 84, 89, 1)" stroke-width="1.5"></path>
        <path d="M942.45 203.83L1120.54 401.99" stroke="rgba(82, 84, 89, 1)" stroke-width="1.5"></path>
        <path d="M948.16 386.14L948.16 386.14" stroke="rgba(82, 84, 89, 1)" stroke-width="1.5"></path>
        <path d="M948.16 386.14L946.27 557.28" stroke="rgba(82, 84, 89, 1)" stroke-width="1.5"></path>
        <path d="M948.16 386.14L1120.54 401.99" stroke="rgba(82, 84, 89, 1)" stroke-width="1.5"></path>
        <path d="M948.16 386.14L819.54 505.62" stroke="rgba(82, 84, 89, 1)" stroke-width="1.5"></path>
        <path d="M946.27 557.28L946.27 557.28" stroke="rgba(82, 84, 89, 1)" stroke-width="1.5"></path>
        <path d="M946.27 557.28L993.65 639.83" stroke="rgba(82, 84, 89, 1)" stroke-width="1.5"></path>
        <path d="M946.27 557.28L1109.36 561.34" stroke="rgba(82, 84, 89, 1)" stroke-width="1.5"></path>
        <path d="M946.27 557.28L1106.75 661.8" stroke="rgba(82, 84, 89, 1)" stroke-width="1.5"></path>
        <path d="M993.65 639.83L993.65 639.83" stroke="rgba(82, 84, 89, 1)" stroke-width="1.5"></path>
        <path d="M993.65 639.83L1106.75 661.8" stroke="rgba(82, 84, 89, 1)" stroke-width="1.5"></path>
        <path d="M1148.84 60.88L1148.84 60.88" stroke="rgba(82, 84, 89, 1)" stroke-width="1.5"></path>
        <path d="M1148.84 60.88L1159.89 200.47" stroke="rgba(82, 84, 89, 1)" stroke-width="1.5"></path>
        <path d="M1148.84 60.88L1288.98 88.16" stroke="rgba(82, 84, 89, 1)" stroke-width="1.5"></path>
        <path d="M1159.89 200.47L1159.89 200.47" stroke="rgba(82, 84, 89, 1)" stroke-width="1.5"></path>
        <path d="M1159.89 200.47L1268.51 219.95" stroke="rgba(82, 84, 89, 1)" stroke-width="1.5"></path>
        <path d="M1120.54 401.99L1120.54 401.99" stroke="rgba(82, 84, 89, 1)" stroke-width="1.5"></path>
        <path d="M1120.54 401.99L1109.36 561.34" stroke="rgba(82, 84, 89, 1)" stroke-width="1.5"></path>
        <path d="M1120.54 401.99L1281.64 379.44" stroke="rgba(82, 84, 89, 1)" stroke-width="1.5"></path>
        <path d="M1109.36 561.34L1109.36 561.34" stroke="rgba(82, 84, 89, 1)" stroke-width="1.5"></path>
        <path d="M1109.36 561.34L1106.75 661.8" stroke="rgba(82, 84, 89, 1)" stroke-width="1.5"></path>
        <path d="M1109.36 561.34L993.65 639.83" stroke="rgba(82, 84, 89, 1)" stroke-width="1.5"></path>
        <path d="M1109.36 561.34L1280.07 536.3" stroke="rgba(82, 84, 89, 1)" stroke-width="1.5"></path>
        <path d="M1106.75 661.8L1106.75 661.8" stroke="rgba(82, 84, 89, 1)" stroke-width="1.5"></path>
        <path d="M1106.75 661.8L1302.13 687.13" stroke="rgba(82, 84, 89, 1)" stroke-width="1.5"></path>
        <path d="M1106.75 661.8L1280.07 536.3" stroke="rgba(82, 84, 89, 1)" stroke-width="1.5"></path>
        <path d="M1309.35 -55.18L1309.35 -55.18" stroke="rgba(82, 84, 89, 1)" stroke-width="1.5"></path>
        <path d="M1309.35 -55.18L1288.98 88.16" stroke="rgba(82, 84, 89, 1)" stroke-width="1.5"></path>
        <path d="M1309.35 -55.18L1148.84 60.88" stroke="rgba(82, 84, 89, 1)" stroke-width="1.5"></path>
        <path d="M1309.35 -55.18L1550.89 -66.28" stroke="rgba(82, 84, 89, 1)" stroke-width="1.5"></path>
        <path d="M1309.35 -55.18L1547.03 38.94" stroke="rgba(82, 84, 89, 1)" stroke-width="1.5"></path>
        <path d="M1288.98 88.16L1288.98 88.16" stroke="rgba(82, 84, 89, 1)" stroke-width="1.5"></path>
        <path d="M1288.98 88.16L1268.51 219.95" stroke="rgba(82, 84, 89, 1)" stroke-width="1.5"></path>
        <path d="M1268.51 219.95L1268.51 219.95" stroke="rgba(82, 84, 89, 1)" stroke-width="1.5"></path>
        <path d="M1268.51 219.95L1281.64 379.44" stroke="rgba(82, 84, 89, 1)" stroke-width="1.5"></path>
        <path d="M1281.64 379.44L1281.64 379.44" stroke="rgba(82, 84, 89, 1)" stroke-width="1.5"></path>
        <path d="M1281.64 379.44L1433.45 355.87" stroke="rgba(82, 84, 89, 1)" stroke-width="1.5"></path>
        <path d="M1281.64 379.44L1280.07 536.3" stroke="rgba(82, 84, 89, 1)" stroke-width="1.5"></path>
        <path d="M1280.07 536.3L1280.07 536.3" stroke="rgba(82, 84, 89, 1)" stroke-width="1.5"></path>
        <path d="M1280.07 536.3L1390.17 639.14" stroke="rgba(82, 84, 89, 1)" stroke-width="1.5"></path>
        <path d="M1280.07 536.3L1302.13 687.13" stroke="rgba(82, 84, 89, 1)" stroke-width="1.5"></path>
        <path d="M1302.13 687.13L1302.13 687.13" stroke="rgba(82, 84, 89, 1)" stroke-width="1.5"></path>
        <path d="M1302.13 687.13L1390.17 639.14" stroke="rgba(82, 84, 89, 1)" stroke-width="1.5"></path>
        <path d="M1456.31 225.44L1456.31 225.44" stroke="rgba(82, 84, 89, 1)" stroke-width="1.5"></path>
        <path d="M1456.31 225.44L1556.4 242.4" stroke="rgba(82, 84, 89, 1)" stroke-width="1.5"></path>
        <path d="M1456.31 225.44L1433.45 355.87" stroke="rgba(82, 84, 89, 1)" stroke-width="1.5"></path>
        <path d="M1433.45 355.87L1433.45 355.87" stroke="rgba(82, 84, 89, 1)" stroke-width="1.5"></path>
        <path d="M1433.45 355.87L1556.4 242.4" stroke="rgba(82, 84, 89, 1)" stroke-width="1.5"></path>
        <path d="M1433.45 355.87L1610.5 405.49" stroke="rgba(82, 84, 89, 1)" stroke-width="1.5"></path>
        <path d="M1433.45 355.87L1553.17 498.12" stroke="rgba(82, 84, 89, 1)" stroke-width="1.5"></path>
        <path d="M1433.45 355.87L1268.51 219.95" stroke="rgba(82, 84, 89, 1)" stroke-width="1.5"></path>
        <path d="M1390.17 639.14L1390.17 639.14" stroke="rgba(82, 84, 89, 1)" stroke-width="1.5"></path>
        <path d="M1390.17 639.14L1553.17 498.12" stroke="rgba(82, 84, 89, 1)" stroke-width="1.5"></path>
        <path d="M1390.17 639.14L1281.64 379.44" stroke="rgba(82, 84, 89, 1)" stroke-width="1.5"></path>
        <path d="M1390.17 639.14L1106.75 661.8" stroke="rgba(82, 84, 89, 1)" stroke-width="1.5"></path>
        <path d="M1390.17 639.14L1433.45 355.87" stroke="rgba(82, 84, 89, 1)" stroke-width="1.5"></path>
        <path d="M1550.89 -66.28L1550.89 -66.28" stroke="rgba(82, 84, 89, 1)" stroke-width="1.5"></path>
        <path d="M1550.89 -66.28L1547.03 38.94" stroke="rgba(82, 84, 89, 1)" stroke-width="1.5"></path>
        <path d="M1550.89 -66.28L1288.98 88.16" stroke="rgba(82, 84, 89, 1)" stroke-width="1.5"></path>
        <path d="M1550.89 -66.28L1456.31 225.44" stroke="rgba(82, 84, 89, 1)" stroke-width="1.5"></path>
        <path d="M1550.89 -66.28L1556.4 242.4" stroke="rgba(82, 84, 89, 1)" stroke-width="1.5"></path>
        <path d="M1550.89 -66.28L1268.51 219.95" stroke="rgba(82, 84, 89, 1)" stroke-width="1.5"></path>
        <path d="M1547.03 38.94L1547.03 38.94" stroke="rgba(82, 84, 89, 1)" stroke-width="1.5"></path>
        <path d="M1547.03 38.94L1556.4 242.4" stroke="rgba(82, 84, 89, 1)" stroke-width="1.5"></path>
        <path d="M1547.03 38.94L1456.31 225.44" stroke="rgba(82, 84, 89, 1)" stroke-width="1.5"></path>
        <path d="M1556.4 242.4L1556.4 242.4" stroke="rgba(82, 84, 89, 1)" stroke-width="1.5"></path>
        <path d="M1556.4 242.4L1610.5 405.49" stroke="rgba(82, 84, 89, 1)" stroke-width="1.5"></path>
        <path d="M1610.5 405.49L1610.5 405.49" stroke="rgba(82, 84, 89, 1)" stroke-width="1.5"></path>
        <path d="M1610.5 405.49L1553.17 498.12" stroke="rgba(82, 84, 89, 1)" stroke-width="1.5"></path>
        <path d="M1610.5 405.49L1456.31 225.44" stroke="rgba(82, 84, 89, 1)" stroke-width="1.5"></path>
        <path d="M1610.5 405.49L1390.17 639.14" stroke="rgba(82, 84, 89, 1)" stroke-width="1.5"></path>
        <path d="M1610.5 405.49L1281.64 379.44" stroke="rgba(82, 84, 89, 1)" stroke-width="1.5"></path>
        <path d="M1553.17 498.12L1553.17 498.12" stroke="rgba(82, 84, 89, 1)" stroke-width="1.5"></path>
        <path d="M1553.17 498.12L1556.4 242.4" stroke="rgba(82, 84, 89, 1)" stroke-width="1.5"></path>
        <circle r="5" cx="-56.09" cy="557.76" fill="rgba(82, 84, 89, 1)"></circle>
        <circle r="5" cx="-92.51" cy="704.42" fill="rgba(82, 84, 89, 1)"></circle>
        <circle r="5" cx="77.27" cy="394.37" fill="rgba(82, 84, 89, 1)"></circle>
        <circle r="5" cx="105.94" cy="494.82" fill="rgba(82, 84, 89, 1)"></circle>
        <circle r="5" cx="59.36" cy="654.6" fill="rgba(82, 84, 89, 1)"></circle>
        <circle r="5" cx="209.9" cy="411.51" fill="rgba(82, 84, 89, 1)"></circle>
        <circle r="5" cx="205.53" cy="691.78" fill="rgba(82, 84, 89, 1)"></circle>
        <circle r="5" cx="404.76" cy="387.14" fill="rgba(82, 84, 89, 1)"></circle>
        <circle r="5" cx="381.68" cy="546.1" fill="rgba(82, 84, 89, 1)"></circle>
        <circle r="5" cx="367.94" cy="669.09" fill="rgba(82, 84, 89, 1)"></circle>
        <circle r="5" cx="534.37" cy="351.43" fill="rgba(82, 84, 89, 1)"></circle>
        <circle r="5" cx="520.86" cy="534.59" fill="rgba(82, 84, 89, 1)"></circle>
        <circle r="5" cx="544.35" cy="672.16" fill="rgba(82, 84, 89, 1)"></circle>
        <circle r="5" cx="675.47" cy="382.74" fill="rgba(82, 84, 89, 1)"></circle>
        <circle r="5" cx="648.38" cy="498.31" fill="rgba(82, 84, 89, 1)"></circle>
        <circle r="5" cx="691.49" cy="673.08" fill="rgba(82, 84, 89, 1)"></circle>
        <circle r="5" cx="789.69" cy="375.7" fill="rgba(82, 84, 89, 1)"></circle>
        <circle r="5" cx="819.54" cy="505.62" fill="rgba(82, 84, 89, 1)"></circle>
        <circle r="5" cx="856" cy="696.16" fill="rgba(82, 84, 89, 1)"></circle>
        <circle r="5" cx="969.45" cy="80.46" fill="rgba(82, 84, 89, 1)"></circle>
        <circle r="5" cx="942.45" cy="203.83" fill="rgba(82, 84, 89, 1)"></circle>
        <circle r="5" cx="948.16" cy="386.14" fill="rgba(82, 84, 89, 1)"></circle>
        <circle r="5" cx="946.27" cy="557.28" fill="rgba(82, 84, 89, 1)"></circle>
        <circle r="5" cx="993.65" cy="639.83" fill="rgba(82, 84, 89, 1)"></circle>
        <circle r="5" cx="1148.84" cy="60.88" fill="rgba(82, 84, 89, 1)"></circle>
        <circle r="5" cx="1159.89" cy="200.47" fill="rgba(82, 84, 89, 1)"></circle>
        <circle r="5" cx="1120.54" cy="401.99" fill="rgba(82, 84, 89, 1)"></circle>
        <circle r="5" cx="1109.36" cy="561.34" fill="rgba(82, 84, 89, 1)"></circle>
        <circle r="5" cx="1106.75" cy="661.8" fill="rgba(82, 84, 89, 1)"></circle>
        <circle r="5" cx="1309.35" cy="-55.18" fill="rgba(82, 84, 89, 1)"></circle>
        <circle r="5" cx="1288.98" cy="88.16" fill="rgba(82, 84, 89, 1)"></circle>
        <circle r="5" cx="1268.51" cy="219.95" fill="rgba(82, 84, 89, 1)"></circle>
        <circle r="5" cx="1281.64" cy="379.44" fill="rgba(82, 84, 89, 1)"></circle>
        <circle r="5" cx="1280.07" cy="536.3" fill="rgba(82, 84, 89, 1)"></circle>
        <circle r="5" cx="1302.13" cy="687.13" fill="rgba(82, 84, 89, 1)"></circle>
        <circle r="5" cx="1456.31" cy="225.44" fill="rgba(82, 84, 89, 1)"></circle>
        <circle r="5" cx="1433.45" cy="355.87" fill="rgba(82, 84, 89, 1)"></circle>
        <circle r="5" cx="1390.17" cy="639.14" fill="rgba(82, 84, 89, 1)"></circle>
        <circle r="5" cx="1550.89" cy="-66.28" fill="rgba(82, 84, 89, 1)"></circle>
        <circle r="5" cx="1547.03" cy="38.94" fill="rgba(82, 84, 89, 1)"></circle>
        <circle r="5" cx="1556.4" cy="242.4" fill="rgba(82, 84, 89, 1)"></circle>
        <circle r="5" cx="1610.5" cy="405.49" fill="rgba(82, 84, 89, 1)"></circle>
        <circle r="5" cx="1553.17" cy="498.12" fill="rgba(82, 84, 89, 1)"></circle>
        <path d="M244.32 549.2L244.32 549.2" stroke="hsl(228.79999999999995, 26.7%, 100%)" stroke-width="1.5"></path>
        <path d="M244.32 549.2L370.26 556.82" stroke="hsl(228.79999999999995, 26.7%, 100%)" stroke-width="1.5"></path>
        <path d="M244.32 549.2L196.56 672.8" stroke="hsl(228.79999999999995, 26.7%, 100%)" stroke-width="1.5"></path>
        <path d="M511.1 694.39L511.1 694.39" stroke="hsl(228.79999999999995, 26.7%, 100%)" stroke-width="1.5"></path>
        <path d="M511.1 694.39L405.1 637.52" stroke="hsl(228.79999999999995, 26.7%, 100%)" stroke-width="1.5"></path>
        <path d="M511.1 694.39L518.81 521.1" stroke="hsl(228.79999999999995, 26.7%, 100%)" stroke-width="1.5"></path>
        <path d="M708.93 525.98L708.93 525.98" stroke="hsl(228.79999999999995, 26.7%, 100%)" stroke-width="1.5"></path>
        <path d="M708.93 525.98L701.59 659.25" stroke="hsl(228.79999999999995, 26.7%, 100%)" stroke-width="1.5"></path>
        <path d="M708.93 525.98L685.54 385.5" stroke="hsl(228.79999999999995, 26.7%, 100%)" stroke-width="1.5"></path>
        <path d="M708.93 525.98L853.08 492.41" stroke="hsl(228.79999999999995, 26.7%, 100%)" stroke-width="1.5"></path>
        <path d="M708.93 525.98L518.81 521.1" stroke="hsl(228.79999999999995, 26.7%, 100%)" stroke-width="1.5"></path>
        <path d="M856.81 351.89L856.81 351.89" stroke="hsl(228.79999999999995, 26.7%, 100%)" stroke-width="1.5"></path>
        <path d="M856.81 351.89L987.44 394.57" stroke="hsl(228.79999999999995, 26.7%, 100%)" stroke-width="1.5"></path>
        <path d="M856.81 351.89L853.08 492.41" stroke="hsl(228.79999999999995, 26.7%, 100%)" stroke-width="1.5"></path>
        <path d="M856.81 351.89L685.54 385.5" stroke="hsl(228.79999999999995, 26.7%, 100%)" stroke-width="1.5"></path>
        <path d="M856.81 351.89L965.97 499.23" stroke="hsl(228.79999999999995, 26.7%, 100%)" stroke-width="1.5"></path>
        <path d="M853.08 492.41L853.08 492.41" stroke="hsl(228.79999999999995, 26.7%, 100%)" stroke-width="1.5"></path>
        <path d="M853.08 492.41L965.97 499.23" stroke="hsl(228.79999999999995, 26.7%, 100%)" stroke-width="1.5"></path>
        <path d="M1131.83 410.92L1131.83 410.92" stroke="hsl(228.79999999999995, 26.7%, 100%)" stroke-width="1.5"></path>
        <path d="M1131.83 410.92L1116.27 522.63" stroke="hsl(228.79999999999995, 26.7%, 100%)" stroke-width="1.5"></path>
        <path d="M1131.83 410.92L987.44 394.57" stroke="hsl(228.79999999999995, 26.7%, 100%)" stroke-width="1.5"></path>
        <path d="M1131.83 410.92L1282.1 349.62" stroke="hsl(228.79999999999995, 26.7%, 100%)" stroke-width="1.5"></path>
        <path d="M1241.17 74.01L1241.17 74.01" stroke="hsl(228.79999999999995, 26.7%, 100%)" stroke-width="1.5"></path>
        <path d="M1241.17 74.01L1152.19 225.88" stroke="hsl(228.79999999999995, 26.7%, 100%)" stroke-width="1.5"></path>
        <path d="M1241.17 74.01L1279.63 -101.73" stroke="hsl(228.79999999999995, 26.7%, 100%)" stroke-width="1.5"></path>
        <path d="M1282.1 349.62L1282.1 349.62" stroke="hsl(228.79999999999995, 26.7%, 100%)" stroke-width="1.5"></path>
        <path d="M1282.1 349.62L1396.73 351.48" stroke="hsl(228.79999999999995, 26.7%, 100%)" stroke-width="1.5"></path>
        <path d="M1282.1 349.62L1152.19 225.88" stroke="hsl(228.79999999999995, 26.7%, 100%)" stroke-width="1.5"></path>
        <path d="M-70.21 552.73L-70.21 552.73" stroke="hsl(228.79999999999995, 26.7%, 100%)" stroke-width="1.5"></path>
        <path d="M-70.21 552.73L-59.17 666.51" stroke="hsl(228.79999999999995, 26.7%, 100%)" stroke-width="1.5"></path>
        <path d="M-70.21 552.73L70.4 507.68" stroke="hsl(228.79999999999995, 26.7%, 100%)" stroke-width="1.5"></path>
        <path d="M-70.21 552.73L105.88 671.15" stroke="hsl(228.79999999999995, 26.7%, 100%)" stroke-width="1.5"></path>
        <path d="M-70.21 552.73L196.56 672.8" stroke="hsl(228.79999999999995, 26.7%, 100%)" stroke-width="1.5"></path>
        <path d="M-70.21 552.73L244.32 549.2" stroke="hsl(228.79999999999995, 26.7%, 100%)" stroke-width="1.5"></path>
        <path d="M-70.21 552.73L370.26 556.82" stroke="hsl(228.79999999999995, 26.7%, 100%)" stroke-width="1.5"></path>
        <path d="M-59.17 666.51L-59.17 666.51" stroke="hsl(228.79999999999995, 26.7%, 100%)" stroke-width="1.5"></path>
        <path d="M-59.17 666.51L105.88 671.15" stroke="hsl(228.79999999999995, 26.7%, 100%)" stroke-width="1.5"></path>
        <path d="M-59.17 666.51L70.4 507.68" stroke="hsl(228.79999999999995, 26.7%, 100%)" stroke-width="1.5"></path>
        <path d="M-59.17 666.51L196.56 672.8" stroke="hsl(228.79999999999995, 26.7%, 100%)" stroke-width="1.5"></path>
        <path d="M70.4 507.68L70.4 507.68" stroke="hsl(228.79999999999995, 26.7%, 100%)" stroke-width="1.5"></path>
        <path d="M70.4 507.68L105.88 671.15" stroke="hsl(228.79999999999995, 26.7%, 100%)" stroke-width="1.5"></path>
        <path d="M70.4 507.68L244.32 549.2" stroke="hsl(228.79999999999995, 26.7%, 100%)" stroke-width="1.5"></path>
        <path d="M105.88 671.15L105.88 671.15" stroke="hsl(228.79999999999995, 26.7%, 100%)" stroke-width="1.5"></path>
        <path d="M105.88 671.15L196.56 672.8" stroke="hsl(228.79999999999995, 26.7%, 100%)" stroke-width="1.5"></path>
        <path d="M105.88 671.15L244.32 549.2" stroke="hsl(228.79999999999995, 26.7%, 100%)" stroke-width="1.5"></path>
        <path d="M196.56 672.8L196.56 672.8" stroke="hsl(228.79999999999995, 26.7%, 100%)" stroke-width="1.5"></path>
        <path d="M196.56 672.8L70.4 507.68" stroke="hsl(228.79999999999995, 26.7%, 100%)" stroke-width="1.5"></path>
        <path d="M196.56 672.8L370.26 556.82" stroke="hsl(228.79999999999995, 26.7%, 100%)" stroke-width="1.5"></path>
        <path d="M196.56 672.8L405.1 637.52" stroke="hsl(228.79999999999995, 26.7%, 100%)" stroke-width="1.5"></path>
        <path d="M370.26 556.82L370.26 556.82" stroke="hsl(228.79999999999995, 26.7%, 100%)" stroke-width="1.5"></path>
        <path d="M370.26 556.82L405.1 637.52" stroke="hsl(228.79999999999995, 26.7%, 100%)" stroke-width="1.5"></path>
        <path d="M370.26 556.82L518.81 521.1" stroke="hsl(228.79999999999995, 26.7%, 100%)" stroke-width="1.5"></path>
        <path d="M405.1 637.52L405.1 637.52" stroke="hsl(228.79999999999995, 26.7%, 100%)" stroke-width="1.5"></path>
        <path d="M405.1 637.52L518.81 521.1" stroke="hsl(228.79999999999995, 26.7%, 100%)" stroke-width="1.5"></path>
        <path d="M518.81 521.1L518.81 521.1" stroke="hsl(228.79999999999995, 26.7%, 100%)" stroke-width="1.5"></path>
        <path d="M685.54 385.5L685.54 385.5" stroke="hsl(228.79999999999995, 26.7%, 100%)" stroke-width="1.5"></path>
        <path d="M685.54 385.5L853.08 492.41" stroke="hsl(228.79999999999995, 26.7%, 100%)" stroke-width="1.5"></path>
        <path d="M685.54 385.5L518.81 521.1" stroke="hsl(228.79999999999995, 26.7%, 100%)" stroke-width="1.5"></path>
        <path d="M701.59 659.25L701.59 659.25" stroke="hsl(228.79999999999995, 26.7%, 100%)" stroke-width="1.5"></path>
        <path d="M701.59 659.25L798.28 705.99" stroke="hsl(228.79999999999995, 26.7%, 100%)" stroke-width="1.5"></path>
        <path d="M701.59 659.25L511.1 694.39" stroke="hsl(228.79999999999995, 26.7%, 100%)" stroke-width="1.5"></path>
        <path d="M798.28 705.99L798.28 705.99" stroke="hsl(228.79999999999995, 26.7%, 100%)" stroke-width="1.5"></path>
        <path d="M798.28 705.99L989.2 711.98" stroke="hsl(228.79999999999995, 26.7%, 100%)" stroke-width="1.5"></path>
        <path d="M798.28 705.99L708.93 525.98" stroke="hsl(228.79999999999995, 26.7%, 100%)" stroke-width="1.5"></path>
        <path d="M798.28 705.99L853.08 492.41" stroke="hsl(228.79999999999995, 26.7%, 100%)" stroke-width="1.5"></path>
        <path d="M798.28 705.99L965.97 499.23" stroke="hsl(228.79999999999995, 26.7%, 100%)" stroke-width="1.5"></path>
        <path d="M987.44 394.57L987.44 394.57" stroke="hsl(228.79999999999995, 26.7%, 100%)" stroke-width="1.5"></path>
        <path d="M987.44 394.57L965.97 499.23" stroke="hsl(228.79999999999995, 26.7%, 100%)" stroke-width="1.5"></path>
        <path d="M965.97 499.23L965.97 499.23" stroke="hsl(228.79999999999995, 26.7%, 100%)" stroke-width="1.5"></path>
        <path d="M965.97 499.23L1116.27 522.63" stroke="hsl(228.79999999999995, 26.7%, 100%)" stroke-width="1.5"></path>
        <path d="M965.97 499.23L1131.83 410.92" stroke="hsl(228.79999999999995, 26.7%, 100%)" stroke-width="1.5"></path>
        <path d="M989.2 711.98L989.2 711.98" stroke="hsl(228.79999999999995, 26.7%, 100%)" stroke-width="1.5"></path>
        <path d="M989.2 711.98L1117.26 658.8" stroke="hsl(228.79999999999995, 26.7%, 100%)" stroke-width="1.5"></path>
        <path d="M989.2 711.98L965.97 499.23" stroke="hsl(228.79999999999995, 26.7%, 100%)" stroke-width="1.5"></path>
        <path d="M989.2 711.98L1116.27 522.63" stroke="hsl(228.79999999999995, 26.7%, 100%)" stroke-width="1.5"></path>
        <path d="M989.2 711.98L853.08 492.41" stroke="hsl(228.79999999999995, 26.7%, 100%)" stroke-width="1.5"></path>
        <path d="M1152.19 225.88L1152.19 225.88" stroke="hsl(228.79999999999995, 26.7%, 100%)" stroke-width="1.5"></path>
        <path d="M1152.19 225.88L1131.83 410.92" stroke="hsl(228.79999999999995, 26.7%, 100%)" stroke-width="1.5"></path>
        <path d="M1116.27 522.63L1116.27 522.63" stroke="hsl(228.79999999999995, 26.7%, 100%)" stroke-width="1.5"></path>
        <path d="M1116.27 522.63L1117.26 658.8" stroke="hsl(228.79999999999995, 26.7%, 100%)" stroke-width="1.5"></path>
        <path d="M1116.27 522.63L1291.41 528.96" stroke="hsl(228.79999999999995, 26.7%, 100%)" stroke-width="1.5"></path>
        <path d="M1116.27 522.63L1241.78 647.61" stroke="hsl(228.79999999999995, 26.7%, 100%)" stroke-width="1.5"></path>
        <path d="M1117.26 658.8L1117.26 658.8" stroke="hsl(228.79999999999995, 26.7%, 100%)" stroke-width="1.5"></path>
        <path d="M1117.26 658.8L1241.78 647.61" stroke="hsl(228.79999999999995, 26.7%, 100%)" stroke-width="1.5"></path>
        <path d="M1117.26 658.8L1291.41 528.96" stroke="hsl(228.79999999999995, 26.7%, 100%)" stroke-width="1.5"></path>
        <path d="M1117.26 658.8L965.97 499.23" stroke="hsl(228.79999999999995, 26.7%, 100%)" stroke-width="1.5"></path>
        <path d="M1117.26 658.8L1131.83 410.92" stroke="hsl(228.79999999999995, 26.7%, 100%)" stroke-width="1.5"></path>
        <path d="M1279.63 -101.73L1279.63 -101.73" stroke="hsl(228.79999999999995, 26.7%, 100%)" stroke-width="1.5"></path>
        <path d="M1279.63 -101.73L1458.09 -46.8" stroke="hsl(228.79999999999995, 26.7%, 100%)" stroke-width="1.5"></path>
        <path d="M1291.41 528.96L1291.41 528.96" stroke="hsl(228.79999999999995, 26.7%, 100%)" stroke-width="1.5"></path>
        <path d="M1291.41 528.96L1405.33 539.08" stroke="hsl(228.79999999999995, 26.7%, 100%)" stroke-width="1.5"></path>
        <path d="M1291.41 528.96L1241.78 647.61" stroke="hsl(228.79999999999995, 26.7%, 100%)" stroke-width="1.5"></path>
        <path d="M1241.78 647.61L1241.78 647.61" stroke="hsl(228.79999999999995, 26.7%, 100%)" stroke-width="1.5"></path>
        <path d="M1241.78 647.61L1405 675.44" stroke="hsl(228.79999999999995, 26.7%, 100%)" stroke-width="1.5"></path>
        <path d="M1241.78 647.61L1405.33 539.08" stroke="hsl(228.79999999999995, 26.7%, 100%)" stroke-width="1.5"></path>
        <path d="M1241.78 647.61L989.2 711.98" stroke="hsl(228.79999999999995, 26.7%, 100%)" stroke-width="1.5"></path>
        <path d="M1458.09 -46.8L1458.09 -46.8" stroke="hsl(228.79999999999995, 26.7%, 100%)" stroke-width="1.5"></path>
        <path d="M1458.09 -46.8L1458.99 56.47" stroke="hsl(228.79999999999995, 26.7%, 100%)" stroke-width="1.5"></path>
        <path d="M1458.09 -46.8L1591.99 -79.24" stroke="hsl(228.79999999999995, 26.7%, 100%)" stroke-width="1.5"></path>
        <path d="M1458.09 -46.8L1560.63 87.12" stroke="hsl(228.79999999999995, 26.7%, 100%)" stroke-width="1.5"></path>
        <path d="M1458.99 56.47L1458.99 56.47" stroke="hsl(228.79999999999995, 26.7%, 100%)" stroke-width="1.5"></path>
        <path d="M1458.99 56.47L1560.63 87.12" stroke="hsl(228.79999999999995, 26.7%, 100%)" stroke-width="1.5"></path>
        <path d="M1458.99 56.47L1591.99 -79.24" stroke="hsl(228.79999999999995, 26.7%, 100%)" stroke-width="1.5"></path>
        <path d="M1458.99 56.47L1458.46 254.27" stroke="hsl(228.79999999999995, 26.7%, 100%)" stroke-width="1.5"></path>
        <path d="M1458.99 56.47L1565.18 224.63" stroke="hsl(228.79999999999995, 26.7%, 100%)" stroke-width="1.5"></path>
        <path d="M1458.46 254.27L1458.46 254.27" stroke="hsl(228.79999999999995, 26.7%, 100%)" stroke-width="1.5"></path>
        <path d="M1458.46 254.27L1565.18 224.63" stroke="hsl(228.79999999999995, 26.7%, 100%)" stroke-width="1.5"></path>
        <path d="M1458.46 254.27L1396.73 351.48" stroke="hsl(228.79999999999995, 26.7%, 100%)" stroke-width="1.5"></path>
        <path d="M1458.46 254.27L1566.28 364.87" stroke="hsl(228.79999999999995, 26.7%, 100%)" stroke-width="1.5"></path>
        <path d="M1458.46 254.27L1560.63 87.12" stroke="hsl(228.79999999999995, 26.7%, 100%)" stroke-width="1.5"></path>
        <path d="M1396.73 351.48L1396.73 351.48" stroke="hsl(228.79999999999995, 26.7%, 100%)" stroke-width="1.5"></path>
        <path d="M1396.73 351.48L1566.28 364.87" stroke="hsl(228.79999999999995, 26.7%, 100%)" stroke-width="1.5"></path>
        <path d="M1405.33 539.08L1405.33 539.08" stroke="hsl(228.79999999999995, 26.7%, 100%)" stroke-width="1.5"></path>
        <path d="M1405.33 539.08L1405 675.44" stroke="hsl(228.79999999999995, 26.7%, 100%)" stroke-width="1.5"></path>
        <path d="M1405.33 539.08L1568.84 518.79" stroke="hsl(228.79999999999995, 26.7%, 100%)" stroke-width="1.5"></path>
        <path d="M1405.33 539.08L1396.73 351.48" stroke="hsl(228.79999999999995, 26.7%, 100%)" stroke-width="1.5"></path>
        <path d="M1405 675.44L1405 675.44" stroke="hsl(228.79999999999995, 26.7%, 100%)" stroke-width="1.5"></path>
        <path d="M1405 675.44L1539.35 686.81" stroke="hsl(228.79999999999995, 26.7%, 100%)" stroke-width="1.5"></path>
        <path d="M1591.99 -79.24L1591.99 -79.24" stroke="hsl(228.79999999999995, 26.7%, 100%)" stroke-width="1.5"></path>
        <path d="M1591.99 -79.24L1560.63 87.12" stroke="hsl(228.79999999999995, 26.7%, 100%)" stroke-width="1.5"></path>
        <path d="M1560.63 87.12L1560.63 87.12" stroke="hsl(228.79999999999995, 26.7%, 100%)" stroke-width="1.5"></path>
        <path d="M1560.63 87.12L1565.18 224.63" stroke="hsl(228.79999999999995, 26.7%, 100%)" stroke-width="1.5"></path>
        <path d="M1565.18 224.63L1565.18 224.63" stroke="hsl(228.79999999999995, 26.7%, 100%)" stroke-width="1.5"></path>
        <path d="M1565.18 224.63L1566.28 364.87" stroke="hsl(228.79999999999995, 26.7%, 100%)" stroke-width="1.5"></path>
        <path d="M1566.28 364.87L1566.28 364.87" stroke="hsl(228.79999999999995, 26.7%, 100%)" stroke-width="1.5"></path>
        <path d="M1566.28 364.87L1568.84 518.79" stroke="hsl(228.79999999999995, 26.7%, 100%)" stroke-width="1.5"></path>
        <path d="M1566.28 364.87L1405.33 539.08" stroke="hsl(228.79999999999995, 26.7%, 100%)" stroke-width="1.5"></path>
        <path d="M1566.28 364.87L1560.63 87.12" stroke="hsl(228.79999999999995, 26.7%, 100%)" stroke-width="1.5"></path>
        <path d="M1568.84 518.79L1568.84 518.79" stroke="hsl(228.79999999999995, 26.7%, 100%)" stroke-width="1.5"></path>
        <path d="M1568.84 518.79L1539.35 686.81" stroke="hsl(228.79999999999995, 26.7%, 100%)" stroke-width="1.5"></path>
        <path d="M1568.84 518.79L1405 675.44" stroke="hsl(228.79999999999995, 26.7%, 100%)" stroke-width="1.5"></path>
        <path d="M1568.84 518.79L1396.73 351.48" stroke="hsl(228.79999999999995, 26.7%, 100%)" stroke-width="1.5"></path>
        <path d="M1568.84 518.79L1291.41 528.96" stroke="hsl(228.79999999999995, 26.7%, 100%)" stroke-width="1.5"></path>
        <path d="M1539.35 686.81L1539.35 686.81" stroke="hsl(228.79999999999995, 26.7%, 100%)" stroke-width="1.5"></path>
        <path d="M1539.35 686.81L1405.33 539.08" stroke="hsl(228.79999999999995, 26.7%, 100%)" stroke-width="1.5"></path>
        <circle r="25" cx="244.32" cy="549.2" fill="url(&quot;#SvgjsRadialGradient1009&quot;)"></circle>
        <circle r="25" cx="511.1" cy="694.39" fill="url(&quot;#SvgjsRadialGradient1009&quot;)"></circle>
        <circle r="25" cx="708.93" cy="525.98" fill="url(&quot;#SvgjsRadialGradient1009&quot;)"></circle>
        <circle r="25" cx="856.81" cy="351.89" fill="url(&quot;#SvgjsRadialGradient1009&quot;)"></circle>
        <circle r="25" cx="853.08" cy="492.41" fill="url(&quot;#SvgjsRadialGradient1009&quot;)"></circle>
        <circle r="25" cx="1131.83" cy="410.92" fill="url(&quot;#SvgjsRadialGradient1009&quot;)"></circle>
        <circle r="25" cx="1241.17" cy="74.01" fill="url(&quot;#SvgjsRadialGradient1009&quot;)"></circle>
        <circle r="25" cx="1282.1" cy="349.62" fill="url(&quot;#SvgjsRadialGradient1009&quot;)"></circle>
        <circle r="5" cx="-70.21" cy="552.73" fill="#eceef4"></circle>
        <circle r="5" cx="-59.17" cy="666.51" fill="#eceef4"></circle>
        <circle r="5" cx="70.4" cy="507.68" fill="#eceef4"></circle>
        <circle r="5" cx="105.88" cy="671.15" fill="#eceef4"></circle>
        <circle r="5" cx="196.56" cy="672.8" fill="#eceef4"></circle>
        <circle r="5" cx="370.26" cy="556.82" fill="#eceef4"></circle>
        <circle r="5" cx="405.1" cy="637.52" fill="#eceef4"></circle>
        <circle r="5" cx="518.81" cy="521.1" fill="#eceef4"></circle>
        <circle r="5" cx="685.54" cy="385.5" fill="#eceef4"></circle>
        <circle r="5" cx="701.59" cy="659.25" fill="#eceef4"></circle>
        <circle r="5" cx="798.28" cy="705.99" fill="#eceef4"></circle>
        <circle r="5" cx="987.44" cy="394.57" fill="#eceef4"></circle>
        <circle r="5" cx="965.97" cy="499.23" fill="#eceef4"></circle>
        <circle r="5" cx="989.2" cy="711.98" fill="#eceef4"></circle>
        <circle r="5" cx="1152.19" cy="225.88" fill="#eceef4"></circle>
        <circle r="5" cx="1116.27" cy="522.63" fill="#eceef4"></circle>
        <circle r="5" cx="1117.26" cy="658.8" fill="#eceef4"></circle>
        <circle r="5" cx="1279.63" cy="-101.73" fill="#eceef4"></circle>
        <circle r="5" cx="1291.41" cy="528.96" fill="#eceef4"></circle>
        <circle r="5" cx="1241.78" cy="647.61" fill="#eceef4"></circle>
        <circle r="5" cx="1458.09" cy="-46.8" fill="#eceef4"></circle>
        <circle r="5" cx="1458.99" cy="56.47" fill="#eceef4"></circle>
        <circle r="5" cx="1458.46" cy="254.27" fill="#eceef4"></circle>
        <circle r="5" cx="1396.73" cy="351.48" fill="#eceef4"></circle>
        <circle r="5" cx="1405.33" cy="539.08" fill="#eceef4"></circle>
        <circle r="5" cx="1405" cy="675.44" fill="#eceef4"></circle>
        <circle r="5" cx="1591.99" cy="-79.24" fill="#eceef4"></circle>
        <circle r="5" cx="1560.63" cy="87.12" fill="#eceef4"></circle>
        <circle r="5" cx="1565.18" cy="224.63" fill="#eceef4"></circle>
        <circle r="5" cx="1566.28" cy="364.87" fill="#eceef4"></circle>
        <circle r="5" cx="1568.84" cy="518.79" fill="#eceef4"></circle>
        <circle r="5" cx="1539.35" cy="686.81" fill="#eceef4"></circle>
    </g>
    <defs>
        <mask id="SvgjsMask1008">
            <rect width="1440" height="560" fill="#ffffff"></rect>
        </mask>
        <radialGradient id="SvgjsRadialGradient1009">
            <stop stop-color="#ffffff" offset="0.1"></stop>
            <stop stop-color="rgba(217, 220, 233, 1)" offset="0.2"></stop>
            <stop stop-color="rgba(217, 220, 233, 0)" offset="1"></stop>
        </radialGradient>
    </defs>
</svg>